# xmcd
#
# Track frame offsets:
# 150
# 600
# 1050
# 1500
# 1950
# 2400
# 2850
# 3300
# 3750
# 4200
# 4650
# 5100
# 5550
# 6000
# 6450
# 6900
# 7350
# 7800
# 8250
# 8700
# 9150
# 9600
# 10050
# 10500
# 10950
# 11400
# 11850
# 12300
# 12750
# 13200
# 13650
# 14100
# 14550
# 15000
# 15450
# 15900
# 16350
# 16800
# 17250
# 17700
# 18150
# 31320
# 68315
# 76989
# 99639
# 122462
# 159565
# 160015
# 160465
# 160915
# 161365
# 161815
# 162265
# 162715
#
# Disc length: 2175 seconds
#
#
# Revision: 0
# Processed by: cddbd v1.5.2PL0 Copyright (c) Steve Scherf et al.
# Submitted via: FreeRIP 2.943 
#
DISCID=07087d36
DTITLE=The Grasshopper Lies Heavy - Gun 
DYEAR=2007
DGENRE=Progressive Rock
TTITLE0=untitled track 01
TTITLE1=untitled track 02
TTITLE2=untitled track 03
TTITLE3=untitled track 04
TTITLE4=untitled track 05
TTITLE5=untitled track 06
TTITLE6=untitled track 07
TTITLE7=untitled track 08
TTITLE8=untitled track 09
TTITLE9=untitled track 10
TTITLE10=untitled track 11
TTITLE11=untitled track 12
TTITLE12=untitled track 13
TTITLE13=untitled track 14
TTITLE14=untitled track 15
TTITLE15=untitled track 16
TTITLE16=untitled track 17
TTITLE17=untitled track 18
TTITLE18=untitled track 19
TTITLE19=untitled track 20
TTITLE20=untitled track 21
TTITLE21=untitled track 22
TTITLE22=untitled track 23
TTITLE23=untitled track 24
TTITLE24=untitled track 25
TTITLE25=untitled track 26
TTITLE26=untitled track 27
TTITLE27=untitled track 28
TTITLE28=untitled track 29
TTITLE29=untitled track 30
TTITLE30=untitled track 31
TTITLE31=untitled track 32
TTITLE32=untitled track 33
TTITLE33=untitled track 34
TTITLE34=untitled track 35
TTITLE35=untitled track 36
TTITLE36=untitled track 37
TTITLE37=untitled track 38
TTITLE38=untitled track 39
TTITLE39=untitled track 40
TTITLE40=Equalizer Drone
TTITLE41=Gifts
TTITLE42=I'll Never
TTITLE43=Untitled2
TTITLE44=All The Abstract
TTITLE45=Not From
TTITLE46=untitled track 47
TTITLE47=untitled track 48
TTITLE48=untitled track 49
TTITLE49=untitled track 50
TTITLE50=untitled track 51
TTITLE51=untitled track 52
TTITLE52=untitled track 53
TTITLE53=untitled track 54
EXTD=Psychedelic Rock, Doom Metal, Prog Rock, Experimental 
EXTT0=
EXTT1=
EXTT2=
EXTT3=
EXTT4=
EXTT5=
EXTT6=
EXTT7=
EXTT8=
EXTT9=
EXTT10=
EXTT11=
EXTT12=
EXTT13=
EXTT14=
EXTT15=
EXTT16=
EXTT17=
EXTT18=
EXTT19=
EXTT20=
EXTT21=
EXTT22=
EXTT23=
EXTT24=
EXTT25=
EXTT26=
EXTT27=
EXTT28=
EXTT29=
EXTT30=
EXTT31=
EXTT32=
EXTT33=
EXTT34=
EXTT35=
EXTT36=
EXTT37=
EXTT38=
EXTT39=
EXTT40=
EXTT41=
EXTT42=
EXTT43=
EXTT44=
EXTT45=
EXTT46=
EXTT47=
EXTT48=
EXTT49=
EXTT50=
EXTT51=
EXTT52=
EXTT53=
PLAYORDER=
